<svg width="89" height="79" viewBox="0 0 89 79" fill="none" xmlns="http://www.w3.org/2000/svg">
<path d="M3.528 58H10.656C11.16 58 11.736 57.64 11.952 57.136L13.968 52.744C14.472 51.664 15.624 50.944 16.848 50.944H36.648C37.872 50.944 39.024 51.664 39.528 52.744L41.544 57.136C41.76 57.64 42.336 58 42.912 58H49.968C50.544 58 50.76 57.64 50.544 57.136L27.792 7.528C27.648 7.168 27.216 6.88 26.784 6.88C26.352 6.88 25.848 7.168 25.704 7.528L2.952 57.136C2.736 57.64 2.952 58 3.528 58ZM19.368 41.008L25.92 26.896C26.208 26.32 26.496 26.032 26.784 26.032C27.072 26.032 27.36 26.32 27.648 26.896L34.128 41.008C34.632 42.16 34.2 42.88 32.976 42.88H20.592C19.368 42.88 18.864 42.16 19.368 41.008Z" fill="#DC143C"/>
<path d="M42.32 32.8C42.32 45.904 50.96 59.08 68.312 59.08C74.576 59.08 78.752 57.568 82.64 54.544C83.072 54.256 83.144 53.68 82.856 53.248L78.896 47.776C78.608 47.344 78.104 47.272 77.672 47.632C75.944 49.072 73.064 50.512 68.384 50.512C45.704 50.512 45.704 15.088 68.384 15.088C72.2 15.088 75.44 16.528 77.6 18.112C78.104 18.472 78.536 18.4 78.896 17.896L82.784 12.352C83.072 11.92 83.072 11.344 82.568 11.056C78.176 8.536 73.352 6.52 68.312 6.52C50.96 6.52 42.32 19.624 42.32 32.8Z" fill="black"/>
</svg>
