<?xml version="1.0" encoding="iso-8859-1"?>
<!-- Generator: Adobe Illustrator 19.0.0, SVG Export Plug-In . SVG Version: 6.00 Build 0)  -->
<svg version="1.1" id="Capa_1" xmlns="http://www.w3.org/2000/svg" xmlns:xlink="http://www.w3.org/1999/xlink" x="0px" y="0px"
	 viewBox="0 0 384 384" style="enable-background:new 0 0 384 384;" xml:space="preserve">
<circle style="fill:#E05B49;" cx="192" cy="192" r="192"/>
<path style="opacity:0.1;enable-background:new    ;" d="M376.21,246.13L227.32,97.24h-8.8l-10.08-10.08l-3.76,1.64l3.64,8.44
	h-21.68l-8.44-8.44l-3.76-1.64l-4.36,10.08h-14.52v4.12l8.88,8.88L90,282.64h-8v4.12l4.32,4.32l-1.76,4.12l87.809,87.809
	C178.823,383.664,185.372,384,192,384C279.235,384,352.834,325.802,376.21,246.13z"/>
<path style="fill:#FCD462;" d="M247.522,284.682l-17.244-40.034h-77.694l-17.244,40.034H91.336l80.089-185.364h40.034
	l80.089,185.364H247.522z M191.561,154.48l-23.33,53.824h46.4L191.561,154.48z"/>
<g>
	<rect x="155.56" y="206.2" style="fill:#3A556A;" width="71.764" height="4.112"/>
	<rect x="155.56" y="97.24" style="fill:#3A556A;" width="71.764" height="4.112"/>
	<rect x="140.24" y="242.4" style="fill:#3A556A;" width="102.408" height="4.112"/>
	<rect x="228.96" y="282.64" style="fill:#3A556A;" width="73.052" height="4.112"/>
	<rect x="82" y="282.64" style="fill:#3A556A;" width="73.296" height="4.112"/>
	
		<rect x="249.44" y="78.676" transform="matrix(-0.918 0.3966 -0.3966 -0.918 558.5173 268.5005)" style="fill:#3A556A;" width="4.112" height="226.648"/>
	
		<rect x="18.06" y="189.936" transform="matrix(-0.3965 0.918 -0.918 -0.3965 359.7334 147.5093)" style="fill:#3A556A;" width="226.648" height="4.112"/>
	<polygon style="fill:#3A556A;" points="220.522,216.654 188.574,142.321 184.798,143.944 216.049,216.654 	"/>
	<polygon style="fill:#3A556A;" points="223.416,233.794 250.512,296.84 254.288,295.217 227.889,233.794 	"/>
	<polygon style="fill:#3A556A;" points="167.158,216.654 198.408,143.944 194.632,142.321 162.684,216.654 	"/>
	<polygon style="fill:#3A556A;" points="155.317,233.794 128.918,295.217 132.694,296.84 159.79,233.794 	"/>
</g>
<g>
</g>
<g>
</g>
<g>
</g>
<g>
</g>
<g>
</g>
<g>
</g>
<g>
</g>
<g>
</g>
<g>
</g>
<g>
</g>
<g>
</g>
<g>
</g>
<g>
</g>
<g>
</g>
<g>
</g>
</svg>
