<svg width="900" height="688" viewBox="0 0 900 688" fill="none" xmlns="http://www.w3.org/2000/svg">
<path d="M495.63 371.842H534.825C549.589 371.866 563.956 376.689 575.821 385.601C587.685 394.513 596.422 407.046 600.75 421.363L621.922 491.4C622.683 493.902 622.854 496.549 622.422 499.13C621.99 501.711 620.967 504.153 619.435 506.259C617.903 508.366 615.905 510.078 613.601 511.259C611.298 512.44 608.753 513.056 606.172 513.057H424.147C421.567 513.056 419.022 512.44 416.719 511.259C414.415 510.078 412.417 508.366 410.885 506.259C409.353 504.153 408.33 501.711 407.898 499.13C407.466 496.549 407.637 493.902 408.397 491.4L429.57 421.363C433.905 407.024 442.662 394.475 454.554 385.56C466.445 376.646 480.843 371.837 495.63 371.842Z" fill="#6E57E0"/>
<path d="M606.24 515.339H424.215C421.276 515.348 418.377 514.657 415.75 513.321C413.122 511.986 410.841 510.043 409.09 507.649C407.339 505.256 406.166 502.478 405.667 499.541C405.167 496.604 405.355 493.589 406.215 490.739L427.5 420.701C431.922 405.869 440.946 392.881 453.228 383.667C465.511 374.453 480.398 369.505 495.675 369.559H534.825C550.102 369.505 564.989 374.453 577.272 383.667C589.554 392.881 598.578 405.869 603 420.701L624.172 490.739C625.032 493.589 625.22 496.604 624.721 499.541C624.221 502.478 623.049 505.256 621.297 507.649C619.546 510.043 617.265 511.986 614.638 513.321C612.011 514.657 609.111 515.348 606.172 515.339H606.24ZM495.63 374.124C481.315 374.073 467.366 378.709 455.857 387.343C444.348 395.978 435.894 408.149 431.753 422.048L410.58 492.085C409.93 494.248 409.789 496.536 410.167 498.764C410.545 500.993 411.432 503.101 412.757 504.92C414.083 506.738 415.809 508.217 417.798 509.238C419.788 510.259 421.985 510.793 424.215 510.798H606.24C608.47 510.793 610.667 510.259 612.657 509.238C614.646 508.217 616.372 506.738 617.698 504.92C619.023 503.101 619.91 500.993 620.288 498.764C620.666 496.536 620.525 494.248 619.875 492.085L598.702 422.048C594.561 408.149 586.107 395.978 574.598 387.343C563.089 378.709 549.14 374.073 534.825 374.124H495.63Z" fill="#093F68"/>
<path d="M503.258 363.945H527.198V377.912C527.198 379.266 526.934 380.608 526.423 381.859C525.912 383.111 525.163 384.248 524.219 385.206C523.274 386.164 522.153 386.923 520.919 387.442C519.686 387.96 518.363 388.227 517.028 388.227H513.405C510.708 388.227 508.121 387.14 506.214 385.206C504.307 383.271 503.235 380.648 503.235 377.912V363.945H503.258Z" fill="#FFC9B0"/>
<path d="M517.027 390.486H513.427C510.137 390.486 506.982 389.162 504.653 386.805C502.325 384.447 501.013 381.249 501.007 377.912V363.946C501.007 363.34 501.244 362.76 501.666 362.332C502.088 361.904 502.661 361.663 503.257 361.663H527.197C527.794 361.663 528.366 361.904 528.788 362.332C529.21 362.76 529.447 363.34 529.447 363.946V377.912C529.441 381.249 528.13 384.447 525.802 386.805C523.473 389.162 520.318 390.486 517.027 390.486V390.486ZM505.507 366.228V377.912C505.513 380.038 506.35 382.076 507.835 383.577C509.32 385.079 511.331 385.922 513.427 385.922H517.027C519.124 385.922 521.135 385.079 522.62 383.577C524.104 382.076 524.941 380.038 524.947 377.912V366.228H505.507Z" fill="#093F68"/>
<path d="M432.608 296.601C421.493 292.333 422.167 283.707 420.502 272.662C418.835 261.718 417.806 250.684 417.42 239.617C416.993 227.043 417.42 214.126 422.145 202.465C428.197 187.471 440.145 177.795 456.098 179.119C455.625 157.028 468.698 136.307 491.85 135.052C528.952 133.043 550.35 173.459 571.072 170.447C591.795 167.435 597.352 158.078 597.352 158.078C600.834 164.837 602.265 172.49 601.464 180.073C600.663 187.655 597.667 194.827 592.852 200.685C592.852 200.685 609.21 195.847 611.19 217.914C613.17 239.982 600.143 298.632 600.143 298.632L585.36 296.076C579.127 294.958 571.342 296.51 565.11 296.715L518.737 298.176C495.472 298.837 457.853 306.277 432.608 296.601Z" fill="#725858"/>
<path d="M466.042 303.79C453.847 303.79 441.855 302.58 431.797 298.723C421.02 294.57 420.03 286.674 418.882 277.523C418.702 276.001 418.5 274.48 418.275 272.959C416.598 261.924 415.561 250.798 415.17 239.64C414.765 227.842 415.035 214.058 420.075 201.575C426.487 185.6 438.457 176.677 453.15 176.677H453.847C454.342 155.431 467.19 134.048 491.737 132.724C513.315 131.583 529.987 144.34 543.307 154.586C553.612 162.505 562.522 169.329 570.735 168.142C589.972 165.358 595.485 156.937 595.485 156.846C595.69 156.513 595.975 156.24 596.314 156.052C596.653 155.865 597.034 155.768 597.42 155.773C597.81 155.773 598.194 155.876 598.533 156.072C598.873 156.268 599.156 156.551 599.355 156.891C599.467 157.097 610.74 177.248 597.645 197.969C600.44 198.097 603.147 198.997 605.475 200.571C609.975 203.766 612.787 209.516 613.507 217.709C615.51 239.891 602.977 296.715 602.437 299.134C602.308 299.705 601.967 300.203 601.485 300.526C601.004 300.849 600.418 300.971 599.85 300.869L585 298.358C580.607 297.863 576.17 297.925 571.792 298.541C569.542 298.769 567.292 298.974 565.042 299.043L518.67 300.503C512.887 300.686 506.092 301.302 498.915 301.941C488.767 302.763 477.315 303.79 466.042 303.79ZM433.395 294.456C451.8 301.53 477.742 299.18 498.645 297.286C505.89 296.624 512.752 296.008 518.67 295.825L565.042 294.365C567 294.365 569.137 294.091 571.387 293.885C576.162 293.214 581.001 293.168 585.787 293.748C586.575 293.748 589.14 294.319 598.5 296.03C600.75 285.35 610.74 237.267 609.03 218.143C608.422 211.296 606.397 206.732 602.977 204.45C601.587 203.577 600.04 202.994 598.425 202.735C596.81 202.477 595.16 202.548 593.572 202.944C593.112 203.078 592.622 203.059 592.173 202.891C591.723 202.723 591.339 202.413 591.075 202.008C590.813 201.603 590.684 201.124 590.708 200.639C590.733 200.155 590.908 199.692 591.21 199.315C595.427 194.265 598.184 188.13 599.177 181.59C600.169 175.049 599.359 168.357 596.835 162.254C593.392 165.54 585.9 170.675 571.432 172.775C561.352 174.212 551.745 166.864 540.63 158.352C527.13 148.014 511.942 136.33 492.03 137.402C469.395 138.612 457.965 159.333 458.392 179.142C458.398 179.462 458.336 179.78 458.212 180.075C458.088 180.37 457.904 180.635 457.672 180.853C457.443 181.074 457.17 181.243 456.871 181.349C456.572 181.455 456.255 181.496 455.94 181.469C441.9 180.283 430.358 188.316 424.283 203.4C419.58 215.107 419.333 228.275 419.783 239.594C420.162 250.569 421.176 261.511 422.82 272.365C423.067 273.985 423.27 275.514 423.45 276.929C424.53 285.556 425.25 291.261 433.507 294.433L433.395 294.456Z" fill="#093F68"/>
<path d="M446.827 321.202C459.664 321.202 470.07 312.109 470.07 300.891C470.07 289.674 459.664 280.581 446.827 280.581C433.991 280.581 423.585 289.674 423.585 300.891C423.585 312.109 433.991 321.202 446.827 321.202Z" fill="#FFC9B0"/>
<path d="M446.828 323.461C432.765 323.461 421.335 313.329 421.335 300.868C421.335 288.408 432.765 278.253 446.828 278.253C460.89 278.253 472.342 288.408 472.342 300.868C472.342 313.329 460.89 323.461 446.828 323.461ZM446.828 282.817C435.263 282.817 425.835 290.919 425.835 300.868C425.835 310.818 435.263 318.897 446.828 318.897C458.392 318.897 467.842 310.818 467.842 300.868C467.842 290.919 458.415 282.84 446.828 282.84V282.817Z" fill="#093F68"/>
<path d="M582.39 321.202C595.226 321.202 605.633 312.109 605.633 300.891C605.633 289.674 595.226 280.581 582.39 280.581C569.554 280.581 559.148 289.674 559.148 300.891C559.148 312.109 569.554 321.202 582.39 321.202Z" fill="#FFC9B0"/>
<path d="M582.39 323.461C568.328 323.461 556.875 313.329 556.875 300.868C556.875 288.408 568.328 278.253 582.39 278.253C596.453 278.253 607.883 288.408 607.883 300.868C607.883 313.329 596.453 323.461 582.39 323.461ZM582.39 282.817C570.803 282.817 561.375 290.919 561.375 300.868C561.375 310.818 570.803 318.897 582.39 318.897C593.978 318.897 603.383 310.818 603.383 300.868C603.383 290.919 594 282.84 582.39 282.84V282.817Z" fill="#093F68"/>
<path d="M515.25 367.118C496.661 367.124 478.831 359.645 465.676 346.324C452.521 333.003 445.119 314.93 445.095 296.076V244.364C449.19 251.21 462.803 248.472 482.76 213.761C557.46 252.146 585.36 230.146 585.36 230.146V296.076C585.336 314.922 577.94 332.988 564.795 346.308C551.65 359.627 533.831 367.112 515.25 367.118V367.118Z" fill="#FFC9B0"/>
<path d="M515.25 369.4C496.07 369.388 477.678 361.662 464.105 347.917C450.532 334.172 442.887 315.529 442.845 296.076V244.364C442.84 243.862 442.999 243.372 443.296 242.971C443.593 242.57 444.012 242.279 444.489 242.144C444.966 242.009 445.473 242.037 445.932 242.223C446.392 242.41 446.777 242.745 447.03 243.177C447.375 243.785 447.879 244.284 448.487 244.619C449.095 244.953 449.782 245.11 450.473 245.071V245.071C453.218 245.071 463.522 242.63 480.78 212.597C481.057 212.079 481.521 211.691 482.075 211.512C482.628 211.333 483.229 211.379 483.75 211.639C555.93 248.723 583.695 228.458 583.965 228.252C584.299 227.991 584.699 227.831 585.119 227.789C585.538 227.748 585.961 227.827 586.339 228.017C586.716 228.207 587.034 228.501 587.255 228.866C587.475 229.23 587.591 229.65 587.588 230.078V296.076C587.546 315.518 579.91 334.15 566.352 347.893C552.793 361.636 534.418 369.37 515.25 369.4V369.4ZM447.368 249.088V296.076C447.368 314.336 454.519 331.849 467.25 344.761C479.98 357.673 497.246 364.927 515.25 364.927C533.254 364.927 550.52 357.673 563.25 344.761C575.981 331.849 583.133 314.336 583.133 296.076V234.072C573.413 238.636 543.555 247.034 483.66 216.751C471.24 237.906 459.517 249.567 450.585 249.636C449.479 249.69 448.374 249.503 447.345 249.088H447.368Z" fill="#093F68"/>
<path d="M560.25 496.261C559.653 496.261 559.081 496.021 558.659 495.593C558.237 495.165 558 494.584 558 493.979V410.5C558 409.895 558.237 409.314 558.659 408.886C559.081 408.459 559.653 408.218 560.25 408.218C560.847 408.218 561.419 408.459 561.841 408.886C562.263 409.314 562.5 409.895 562.5 410.5V493.979C562.5 494.584 562.263 495.165 561.841 495.593C561.419 496.021 560.847 496.261 560.25 496.261V496.261Z" fill="#093F68"/>
<path d="M470.25 496.261C469.653 496.261 469.081 496.021 468.659 495.593C468.237 495.165 468 494.584 468 493.979V410.5C468 409.895 468.237 409.314 468.659 408.886C469.081 408.459 469.653 408.218 470.25 408.218C470.847 408.218 471.419 408.459 471.841 408.886C472.263 409.314 472.5 409.895 472.5 410.5V493.979C472.5 494.584 472.263 495.165 471.841 495.593C471.419 496.021 470.847 496.261 470.25 496.261V496.261Z" fill="#093F68"/>
<path d="M515.07 309.061C512.711 309.044 510.357 308.846 508.027 308.468C507.431 308.362 506.9 308.02 506.552 307.517C506.204 307.014 506.067 306.392 506.171 305.786C506.276 305.181 506.613 304.643 507.109 304.29C507.604 303.937 508.218 303.798 508.815 303.904C512.356 304.469 515.962 304.469 519.502 303.904C519.952 301.804 517.252 293.977 513.427 286.605C513.295 286.333 513.218 286.037 513.2 285.735C513.182 285.432 513.223 285.128 513.322 284.842C513.421 284.556 513.575 284.293 513.776 284.068C513.976 283.842 514.219 283.66 514.489 283.531C514.76 283.402 515.053 283.329 515.352 283.317C515.651 283.304 515.949 283.352 516.229 283.458C516.51 283.563 516.766 283.724 516.985 283.932C517.203 284.139 517.378 284.389 517.5 284.666C520.02 289.572 525.667 301.485 523.597 306.163C523.366 306.722 523.01 307.219 522.557 307.615C522.104 308.011 521.567 308.295 520.987 308.445C519.048 308.897 517.06 309.104 515.07 309.061V309.061Z" fill="#093F68"/>
<path d="M499.5 254.382H465.12C463.927 254.382 462.782 253.901 461.938 253.045C461.094 252.189 460.62 251.029 460.62 249.818C460.62 248.608 461.094 247.447 461.938 246.591C462.782 245.735 463.927 245.254 465.12 245.254H499.523C500.716 245.254 501.861 245.735 502.705 246.591C503.548 247.447 504.023 248.608 504.023 249.818C504.023 251.029 503.548 252.189 502.705 253.045C501.861 253.901 500.716 254.382 499.523 254.382H499.5Z" fill="#093F68"/>
<path d="M563.063 254.382H528.682C527.489 254.382 526.344 253.901 525.501 253.045C524.657 252.189 524.182 251.029 524.182 249.818C524.182 248.608 524.657 247.447 525.501 246.591C526.344 245.735 527.489 245.254 528.682 245.254H563.063C564.256 245.254 565.401 245.735 566.244 246.591C567.088 247.447 567.563 248.608 567.563 249.818C567.563 251.029 567.088 252.189 566.244 253.045C565.401 253.901 564.256 254.382 563.063 254.382Z" fill="#093F68"/>
<path d="M462.127 266.888H502.628C504.155 266.888 505.62 267.504 506.7 268.599C507.781 269.695 508.388 271.181 508.388 272.73V276.541C508.388 281.765 506.342 286.774 502.7 290.467C499.059 294.161 494.12 296.236 488.97 296.236H475.762C470.613 296.236 465.674 294.161 462.032 290.467C458.391 286.774 456.345 281.765 456.345 276.541V272.73C456.345 271.961 456.495 271.2 456.786 270.489C457.076 269.779 457.503 269.134 458.04 268.591C458.577 268.048 459.215 267.619 459.916 267.326C460.618 267.034 461.369 266.885 462.127 266.888V266.888Z" fill="white"/>
<path d="M488.993 298.541H475.808C470.063 298.535 464.555 296.217 460.493 292.097C456.431 287.977 454.146 282.391 454.14 276.564V272.73C454.14 270.58 454.981 268.517 456.478 266.994C457.975 265.471 460.007 264.612 462.128 264.606H502.628C504.75 264.612 506.784 265.47 508.285 266.992C509.786 268.514 510.632 270.577 510.638 272.73V276.564C510.632 282.387 508.35 287.97 504.293 292.089C500.235 296.209 494.733 298.529 488.993 298.541V298.541ZM462.128 269.17C461.668 269.17 461.212 269.262 460.788 269.442C460.363 269.621 459.978 269.883 459.654 270.214C459.329 270.545 459.073 270.938 458.899 271.37C458.725 271.801 458.637 272.264 458.64 272.73V276.564C458.646 281.18 460.457 285.606 463.675 288.87C466.893 292.134 471.256 293.97 475.808 293.977H488.993C493.546 293.971 497.911 292.135 501.133 288.871C504.355 285.608 506.171 281.182 506.183 276.564V272.73C506.183 271.786 505.813 270.881 505.155 270.213C504.496 269.545 503.603 269.17 502.673 269.17H462.128Z" fill="#093F68"/>
<path d="M527.513 266.888H568.013C569.54 266.888 571.005 267.504 572.086 268.599C573.166 269.695 573.773 271.181 573.773 272.73V276.541C573.773 281.765 571.727 286.774 568.085 290.467C564.444 294.161 559.505 296.236 554.355 296.236H541.148C535.998 296.236 531.059 294.161 527.417 290.467C523.776 286.774 521.73 281.765 521.73 276.541V272.73C521.73 271.961 521.88 271.2 522.171 270.489C522.462 269.779 522.888 269.134 523.425 268.591C523.962 268.048 524.6 267.619 525.301 267.326C526.003 267.034 526.754 266.885 527.513 266.888V266.888Z" fill="white"/>
<path d="M554.377 298.541H541.192C535.444 298.541 529.93 296.226 525.863 292.105C521.796 287.985 519.508 282.395 519.503 276.564V272.73C519.508 270.577 520.354 268.514 521.855 266.992C523.356 265.47 525.39 264.612 527.512 264.606H568.012C570.133 264.612 572.165 265.471 573.662 266.994C575.159 268.517 576 270.58 576 272.73V276.564C575.994 282.383 573.716 287.962 569.663 292.081C565.611 296.2 560.114 298.523 554.377 298.541V298.541ZM527.512 269.17C526.582 269.17 525.689 269.545 525.031 270.213C524.372 270.881 524.003 271.786 524.003 272.73V276.564C524.014 281.182 525.83 285.608 529.052 288.871C532.274 292.135 536.639 293.971 541.192 293.977H554.377C558.929 293.97 563.292 292.134 566.51 288.87C569.728 285.606 571.539 281.18 571.545 276.564V272.73C571.548 272.264 571.46 271.801 571.286 271.37C571.112 270.938 570.856 270.545 570.532 270.214C570.207 269.883 569.822 269.621 569.397 269.442C568.973 269.262 568.517 269.17 568.058 269.17H527.512Z" fill="#093F68"/>
<path d="M456.39 278.846H443.25C442.653 278.846 442.081 278.606 441.659 278.178C441.237 277.75 441 277.169 441 276.564C441 275.959 441.237 275.378 441.659 274.951C442.081 274.523 442.653 274.282 443.25 274.282H456.322C456.919 274.282 457.492 274.523 457.913 274.951C458.335 275.378 458.572 275.959 458.572 276.564C458.572 277.169 458.335 277.75 457.913 278.178C457.492 278.606 456.919 278.846 456.322 278.846H456.39Z" fill="#093F68"/>
<path d="M587.52 278.846H574.47C573.873 278.846 573.301 278.606 572.879 278.178C572.457 277.75 572.22 277.169 572.22 276.564C572.22 275.959 572.457 275.378 572.879 274.951C573.301 274.523 573.873 274.282 574.47 274.282H587.52C588.117 274.282 588.689 274.523 589.111 274.951C589.533 275.378 589.77 275.959 589.77 276.564C589.77 277.169 589.533 277.75 589.111 278.178C588.689 278.606 588.117 278.846 587.52 278.846Z" fill="#093F68"/>
<path d="M521.753 278.846H508.5C507.903 278.846 507.331 278.606 506.909 278.178C506.487 277.75 506.25 277.169 506.25 276.564C506.25 275.959 506.487 275.378 506.909 274.951C507.331 274.523 507.903 274.282 508.5 274.282H521.82C522.417 274.282 522.989 274.523 523.411 274.951C523.833 275.378 524.07 275.959 524.07 276.564C524.07 277.169 523.833 277.75 523.411 278.178C522.989 278.606 522.417 278.846 521.82 278.846H521.753Z" fill="#093F68"/>
<path d="M513.743 331.061C505.714 331.092 497.75 329.615 490.253 326.702C489.695 326.484 489.245 326.05 489.002 325.496C488.76 324.942 488.744 324.312 488.959 323.746C489.174 323.181 489.601 322.724 490.148 322.478C490.694 322.232 491.315 322.216 491.873 322.434C506.25 327.675 521.978 327.675 536.355 322.434C536.628 322.319 536.921 322.259 537.217 322.259C537.513 322.258 537.807 322.317 538.08 322.431C538.354 322.546 538.603 322.714 538.813 322.926C539.022 323.138 539.189 323.389 539.303 323.667C539.416 323.944 539.475 324.241 539.476 324.541C539.476 324.842 539.418 325.139 539.305 325.417C539.193 325.694 539.027 325.947 538.818 326.159C538.609 326.372 538.361 326.541 538.087 326.656C530.302 329.604 522.053 331.097 513.743 331.061V331.061Z" fill="#093F68"/>
<path d="M576.922 477.092C576.396 477.102 575.883 476.926 575.472 476.592C575.06 476.258 574.778 475.789 574.672 475.266C574.613 474.972 574.612 474.67 574.668 474.375C574.724 474.081 574.837 473.801 575 473.551C575.163 473.301 575.373 473.086 575.618 472.918C575.863 472.75 576.138 472.633 576.427 472.573L601.312 467.416C601.909 467.294 602.529 467.419 603.035 467.761C603.542 468.104 603.893 468.636 604.012 469.241C604.132 469.846 604.009 470.475 603.672 470.989C603.334 471.502 602.809 471.859 602.212 471.98L577.327 477.114C577.192 477.126 577.056 477.119 576.922 477.092V477.092Z" fill="#093F68"/>
<path d="M453.532 477.092C453.383 477.116 453.232 477.116 453.082 477.092L428.197 471.797C427.902 471.737 427.621 471.619 427.371 471.449C427.12 471.279 426.905 471.06 426.738 470.806C426.571 470.552 426.455 470.266 426.397 469.967C426.338 469.667 426.338 469.358 426.397 469.059C426.457 468.759 426.573 468.474 426.741 468.22C426.909 467.966 427.124 467.748 427.375 467.579C427.625 467.409 427.907 467.291 428.202 467.232C428.498 467.173 428.802 467.173 429.097 467.233L453.982 472.39C454.272 472.45 454.547 472.568 454.792 472.735C455.037 472.903 455.247 473.118 455.41 473.368C455.573 473.618 455.686 473.898 455.742 474.193C455.798 474.487 455.797 474.79 455.737 475.083C455.672 475.632 455.413 476.138 455.007 476.508C454.601 476.877 454.078 477.085 453.532 477.092Z" fill="#093F68"/>
<path d="M451.71 429.259H578.475C581.327 429.259 584.063 430.408 586.08 432.454C588.097 434.5 589.23 437.274 589.23 440.167V515.157H441V440.167C441 437.282 442.127 434.514 444.134 432.47C446.141 430.426 448.865 429.271 451.71 429.259V429.259Z" fill="#F56132"/>
<path d="M589.23 517.439H441C440.403 517.439 439.831 517.198 439.409 516.77C438.987 516.343 438.75 515.762 438.75 515.157V440.167C438.75 436.669 440.12 433.314 442.559 430.84C444.998 428.367 448.306 426.977 451.755 426.977H578.475C581.924 426.977 585.232 428.367 587.671 430.84C590.11 433.314 591.48 436.669 591.48 440.167V515.157C591.48 515.762 591.243 516.343 590.821 516.77C590.399 517.198 589.827 517.439 589.23 517.439ZM443.25 512.875H587.025V440.167C587.019 437.881 586.121 435.691 584.527 434.074C582.934 432.458 580.774 431.547 578.52 431.541H451.71C449.456 431.547 447.296 432.458 445.703 434.074C444.109 435.691 443.211 437.881 443.205 440.167L443.25 512.875Z" fill="#093F68"/>
<path d="M433.755 515.157H596.452C596.452 518.074 595.31 520.872 593.276 522.935C591.242 524.998 588.484 526.156 585.607 526.156H444.6C441.724 526.156 438.965 524.998 436.931 522.935C434.898 520.872 433.755 518.074 433.755 515.157V515.157Z" fill="#F56132"/>
<path d="M585.585 528.484H444.6C441.129 528.478 437.802 527.077 435.347 524.587C432.893 522.098 431.511 518.723 431.505 515.203C431.505 514.597 431.742 514.017 432.164 513.589C432.586 513.161 433.158 512.92 433.755 512.92H596.43C597.027 512.92 597.599 513.161 598.021 513.589C598.443 514.017 598.68 514.597 598.68 515.203C598.674 518.723 597.293 522.098 594.838 524.587C592.384 527.077 589.056 528.478 585.585 528.484ZM436.298 517.439C436.795 519.286 437.877 520.916 439.377 522.079C440.877 523.241 442.712 523.872 444.6 523.874H585.585C587.492 523.897 589.353 523.278 590.876 522.114C592.398 520.949 593.497 519.305 594 517.439H436.298Z" fill="#093F68"/>
<path d="M513.428 431.541C512.831 431.541 512.259 431.301 511.837 430.873C511.415 430.445 511.178 429.864 511.178 429.259V388.181C511.178 387.576 511.415 386.996 511.837 386.568C512.259 386.14 512.831 385.899 513.428 385.899C514.024 385.899 514.597 386.14 515.019 386.568C515.441 386.996 515.678 387.576 515.678 388.181V429.259C515.678 429.864 515.441 430.445 515.019 430.873C514.597 431.301 514.024 431.541 513.428 431.541Z" fill="#093F68"/>
<path d="M300.06 460.181H363.06V505.23C363.06 510.792 360.881 516.126 357.004 520.059C353.126 523.993 347.867 526.202 342.382 526.202H320.738C315.253 526.202 309.994 523.993 306.116 520.059C302.238 516.126 300.06 510.792 300.06 505.23V460.181Z" fill="#FFBC0E"/>
<path d="M342.382 528.484H320.737C314.659 528.478 308.83 526.026 304.532 521.666C300.233 517.307 297.816 511.395 297.81 505.23V460.181C297.81 459.576 298.047 458.996 298.469 458.568C298.891 458.14 299.463 457.899 300.06 457.899H363.06C363.657 457.899 364.229 458.14 364.651 458.568C365.073 458.996 365.31 459.576 365.31 460.181V505.23C365.304 511.395 362.887 517.307 358.588 521.666C354.29 526.026 348.461 528.478 342.382 528.484V528.484ZM302.31 462.463V505.23C302.31 510.187 304.251 514.941 307.707 518.446C311.163 521.951 315.85 523.92 320.737 523.92H342.382C347.268 523.914 351.952 521.943 355.406 518.439C358.861 514.935 360.804 510.185 360.81 505.23V462.463H302.31Z" fill="#093F68"/>
<path d="M638.122 526.202H261.878C254.571 526.202 248.648 532.205 248.648 539.609C248.648 547.014 254.571 553.017 261.878 553.017H638.122C645.429 553.017 651.352 547.014 651.352 539.609C651.352 532.205 645.429 526.202 638.122 526.202Z" fill="#725858"/>
<path d="M638.123 555.299H261.877C259.796 555.379 257.721 555.033 255.775 554.281C253.829 553.529 252.052 552.386 250.552 550.921C249.052 549.456 247.858 547.7 247.043 545.756C246.228 543.812 245.807 541.722 245.807 539.609C245.807 537.497 246.228 535.407 247.043 533.463C247.858 531.519 249.052 529.763 250.552 528.298C252.052 526.833 253.829 525.69 255.775 524.938C257.721 524.186 259.796 523.84 261.877 523.92H638.123C640.204 523.84 642.279 524.186 644.225 524.938C646.171 525.69 647.948 526.833 649.448 528.298C650.948 529.763 652.142 531.519 652.957 533.463C653.772 535.407 654.193 537.497 654.193 539.609C654.193 541.722 653.772 543.812 652.957 545.756C652.142 547.7 650.948 549.456 649.448 550.921C647.948 552.386 646.171 553.529 644.225 554.281C642.279 555.033 640.204 555.379 638.123 555.299V555.299ZM261.877 528.484C260.395 528.416 258.915 528.654 257.526 529.182C256.136 529.71 254.867 530.519 253.794 531.559C252.722 532.598 251.868 533.848 251.285 535.232C250.701 536.615 250.401 538.105 250.401 539.609C250.401 541.114 250.701 542.604 251.285 543.987C251.868 545.371 252.722 546.621 253.794 547.661C254.867 548.7 256.136 549.509 257.526 550.037C258.915 550.566 260.395 550.803 261.877 550.735H638.123C639.605 550.803 641.085 550.566 642.475 550.037C643.864 549.509 645.133 548.7 646.206 547.661C647.278 546.621 648.132 545.371 648.715 543.987C649.299 542.604 649.599 541.114 649.599 539.609C649.599 538.105 649.299 536.615 648.715 535.232C648.132 533.848 647.278 532.598 646.206 531.559C645.133 530.519 643.864 529.71 642.475 529.182C641.085 528.654 639.605 528.416 638.123 528.484H261.877Z" fill="#093F68"/>
<path d="M366.75 506.029H363.082C362.486 506.029 361.913 505.788 361.491 505.36C361.07 504.932 360.832 504.352 360.832 503.746V467.53C360.832 466.924 361.07 466.344 361.491 465.916C361.913 465.488 362.486 465.248 363.082 465.248H366.75C369.594 464.899 372.478 465.166 375.212 466.032C377.946 466.897 380.468 468.341 382.612 470.268C384.755 472.195 386.471 474.562 387.647 477.211C388.822 479.861 389.429 482.733 389.429 485.638C389.429 488.543 388.822 491.415 387.647 494.065C386.471 496.714 384.755 499.081 382.612 501.008C380.468 502.935 377.946 504.379 375.212 505.244C372.478 506.11 369.594 506.377 366.75 506.029V506.029ZM365.332 501.464H366.75C368.954 501.719 371.187 501.499 373.302 500.817C375.416 500.136 377.365 499.009 379.021 497.51C380.676 496.012 382 494.176 382.907 492.122C383.814 490.068 384.283 487.843 384.283 485.592C384.283 483.342 383.814 481.117 382.907 479.063C382 477.009 380.676 475.173 379.021 473.674C377.365 472.176 375.416 471.049 373.302 470.368C371.187 469.686 368.954 469.466 366.75 469.72H365.332V501.464Z" fill="#093F68"/>
<path d="M393.75 259.517H260.37C257.263 259.517 254.745 262.071 254.745 265.222V377.204C254.745 380.355 257.263 382.91 260.37 382.91H393.75C396.857 382.91 399.375 380.355 399.375 377.204V265.222C399.375 262.071 396.857 259.517 393.75 259.517Z" fill="white"/>
<path d="M393.75 385.192H260.347C258.263 385.186 256.266 384.342 254.794 382.844C253.322 381.347 252.495 379.319 252.495 377.204V265.199C252.495 263.087 253.322 261.061 254.795 259.568C256.268 258.074 258.265 257.235 260.347 257.235H393.75C395.835 257.235 397.834 258.073 399.311 259.566C400.787 261.059 401.619 263.085 401.625 265.199V377.204C401.625 379.323 400.795 381.354 399.318 382.852C397.842 384.35 395.839 385.192 393.75 385.192V385.192ZM260.347 261.845C259.458 261.845 258.606 262.203 257.977 262.841C257.348 263.478 256.995 264.343 256.995 265.245V377.25C256.995 378.154 257.347 379.021 257.976 379.663C258.604 380.304 259.456 380.667 260.347 380.673H393.75C394.645 380.673 395.504 380.313 396.136 379.671C396.769 379.029 397.125 378.158 397.125 377.25V265.199C397.107 264.303 396.744 263.45 396.113 262.823C395.482 262.196 394.634 261.845 393.75 261.845H260.347Z" fill="#093F68"/>
<path d="M260.347 259.563H393.75C395.242 259.563 396.673 260.164 397.727 261.234C398.782 262.304 399.375 263.755 399.375 265.268V275.149H254.745V265.268C254.745 263.759 255.335 262.311 256.385 261.242C257.435 260.172 258.86 259.569 260.347 259.563V259.563Z" fill="#6E57E0"/>
<path d="M399.375 277.386H254.745C254.148 277.386 253.576 277.145 253.154 276.717C252.732 276.289 252.495 275.709 252.495 275.104V265.199C252.495 263.087 253.322 261.061 254.795 259.568C256.268 258.074 258.265 257.235 260.347 257.235H393.75C395.835 257.235 397.834 258.073 399.311 259.566C400.787 261.059 401.619 263.085 401.625 265.199V275.104C401.625 275.709 401.388 276.289 400.966 276.717C400.544 277.145 399.972 277.386 399.375 277.386ZM256.995 272.822H397.125V265.199C397.107 264.303 396.744 263.45 396.113 262.823C395.482 262.196 394.634 261.845 393.75 261.845H260.347C259.458 261.845 258.606 262.203 257.977 262.841C257.348 263.478 256.995 264.343 256.995 265.245V272.822Z" fill="#093F68"/>
<path d="M265.973 270.357C267.638 270.357 268.988 268.988 268.988 267.299C268.988 265.61 267.638 264.241 265.973 264.241C264.307 264.241 262.958 265.61 262.958 267.299C262.958 268.988 264.307 270.357 265.973 270.357Z" fill="#093F68"/>
<path d="M274.41 270.357C276.075 270.357 277.425 268.988 277.425 267.299C277.425 265.61 276.075 264.241 274.41 264.241C272.745 264.241 271.395 265.61 271.395 267.299C271.395 268.988 272.745 270.357 274.41 270.357Z" fill="#093F68"/>
<path d="M282.87 270.357C284.535 270.357 285.885 268.988 285.885 267.299C285.885 265.61 284.535 264.241 282.87 264.241C281.205 264.241 279.855 265.61 279.855 267.299C279.855 268.988 281.205 270.357 282.87 270.357Z" fill="#093F68"/>
<path d="M308.452 318.098L287.64 327.729V327.888L308.452 337.519V348.062L275.22 332.704V322.913L308.452 307.487V318.098Z" fill="#093F68"/>
<path d="M333.135 292.265L340.605 294.981L320.917 355.41L313.492 352.695L333.135 292.265Z" fill="#093F68"/>
<path d="M345.667 337.519L366.48 327.888V327.729L345.667 318.098V307.487L378.878 322.845V332.635L345.667 347.994V337.519Z" fill="#093F68"/>
</svg>
